# xmcd
#
# Track frame offsets:
#	150
#	2958
#	17382
#	34133
#	38309
#	59737
#	83447
#	100259
#	101293
#	119819
#	134758
#	160944
#	182177
#
# Disc length: 2739 seconds
#
# Revision: 0
# Processed by: cddbd v1.4PL0 Copyright (c) Steve Scherf et al.
# Submitted via: dBpowerAMP V4.0
#
DISCID=a30ab10d
DTITLE=Cool D - Pahade Planeet
DYEAR=1999
DGENRE=Rap
TTITLE0=Sissetung
TTITLE1=Pahade planeet
TTITLE2=Ma sülgan tuld
TTITLE3=Väljasõit puhkusele
TTITLE4=Vegeteerivad bandiidid
TTITLE5=Friik
TTITLE6=Kuidas ma politseiga jõin (feat. G-Enka)
TTITLE7=Katus sõidab
TTITLE8=Siin ja praegu
TTITLE9=Mr. Minister
TTITLE10=Raha, naised ja viin
TTITLE11=Kui ööd on valged (feat. Veiks and Tambet, Maian Kärmas)
TTITLE12=Vennad Voitkad (feat. Kozy and Voitkad)
EXTD=
EXTT0=
EXTT1=
EXTT2=
EXTT3=
EXTT4=
EXTT5=
EXTT6=
EXTT7=
EXTT8=
EXTT9=
EXTT10=
EXTT11=
EXTT12=
PLAYORDER=
